<svg width="512" height="512" viewBox="0 0 512 512" fill="none" xmlns="http://www.w3.org/2000/svg">
<path d="M504.342 317.908C470.138 455.124 331.116 538.536 194.096 504.33C56.8758 470.126 -26.5363 331.11 7.66973 194.092C41.8738 56.8758 180.694 -26.5363 317.914 7.66975C454.934 41.6738 538.548 180.69 504.342 317.908Z" fill="#231F20"/>
<path d="M377.89 224.1C382.89 190.1 357.09 171.7 321.49 159.5L333.09 113.3L305.09 106.3L293.89 151.3C286.49 149.5 278.89 147.7 271.29 146.1L282.49 100.9L254.49 93.8999L243.09 139.9C236.89 138.5 230.89 137.1 225.09 135.7V135.5L186.29 125.9L178.89 155.9C178.89 155.9 199.69 160.7 199.29 160.9C210.69 163.7 212.69 171.3 212.29 177.3L199.09 229.9C199.89 230.1 200.89 230.3 202.09 230.9C201.09 230.7 200.09 230.5 199.09 230.1L180.69 303.7C179.29 307.1 175.69 312.3 167.89 310.3C168.09 310.7 147.49 305.3 147.49 305.3L133.49 337.5L170.09 346.7C176.89 348.5 183.49 350.1 190.09 351.9L178.49 398.5L206.49 405.5L218.09 359.3C225.69 361.3 233.29 363.3 240.49 365.1L229.09 411.1L257.09 418.1L268.69 371.5C316.69 380.5 352.69 376.9 367.69 333.5C379.89 298.7 367.09 278.5 341.89 265.3C360.49 261.1 374.29 248.9 377.89 224.1V224.1ZM313.69 314.1C305.09 348.9 246.29 330.1 227.29 325.3L242.69 263.5C261.69 268.3 322.89 277.7 313.69 314.1ZM322.49 223.5C314.49 255.3 265.69 239.1 249.89 235.1L263.89 179.1C279.69 183.1 330.69 190.5 322.49 223.5Z" fill="#F7931A"/>
</svg>
