<svg width="512" height="512" viewBox="0 0 512 512" fill="none" xmlns="http://www.w3.org/2000/svg">
<rect width="512" height="512" rx="256" fill="#231F20"/>
<path d="M450.017 304.366C423.295 411.566 314.684 476.731 207.637 450.008C100.434 423.286 35.2685 314.68 61.992 207.634C88.7139 100.434 197.167 35.2685 304.37 61.992C411.417 88.5576 476.741 197.164 450.017 304.366Z" fill="#345E9D"/>
<path d="M256 56C216.444 56 177.776 67.7298 144.886 89.7061C111.996 111.682 86.3617 142.918 71.2242 179.463C56.0867 216.009 52.126 256.222 59.843 295.018C67.5601 333.814 86.6082 369.451 114.579 397.421C142.549 425.392 178.186 444.44 216.982 452.157C255.778 459.874 295.991 455.913 332.537 440.776C369.082 425.638 400.318 400.004 422.294 367.114C444.27 334.224 456 295.556 456 256C456 202.957 434.929 152.086 397.421 114.579C359.914 77.0714 309.043 56 256 56V56ZM251.633 117.3H294.7C295.581 117.301 296.45 117.506 297.239 117.898C298.027 118.29 298.715 118.86 299.247 119.562C299.78 120.263 300.143 121.079 300.308 121.944C300.473 122.809 300.436 123.701 300.2 124.55L266.367 239.85L298.117 230.15L291.317 253.233L259.25 262.567L238.45 332.8H349.717C350.599 332.805 351.467 333.014 352.255 333.41C353.043 333.806 353.728 334.38 354.258 335.085C354.787 335.79 355.146 336.608 355.307 337.476C355.467 338.343 355.425 339.235 355.183 340.083L345.483 373.417C345.019 375.002 344.054 376.395 342.732 377.387C341.41 378.378 339.802 378.915 338.15 378.917H168.217L196.933 281.883L165.167 291.55L172.167 268.867L204 259.2L244.367 122.867C244.809 121.272 245.76 119.866 247.075 118.862C248.389 117.857 249.996 117.309 251.65 117.3H251.633Z" fill="#231F20"/>
</svg>
