<svg width="512" height="512" viewBox="0 0 512 512" fill="none" xmlns="http://www.w3.org/2000/svg">
<circle cx="256" cy="256" r="200" fill="#2875CA"/>
<path d="M256 0C397.392 0 512 114.608 512 256C512 397.392 397.392 512 256 512C114.608 512 0 397.392 0 256C0 114.608 114.608 0 256 0ZM309.632 88.96C305.728 87.04 301.824 88.96 300.864 92.848C299.888 93.824 299.888 94.8 299.888 96.736V110.336L300.048 112C300.883 115.292 302.906 118.158 305.728 120.048C381.792 147.248 420.8 231.728 392.512 306.496C377.888 347.296 345.712 378.352 305.728 392.928C301.824 394.864 299.888 397.776 299.888 402.64V416.24L299.968 417.648C300.12 419.184 300.762 420.631 301.799 421.775C302.836 422.919 304.214 423.699 305.728 424C306.704 424 308.656 424 309.632 423.04C331.577 416.187 351.95 405.06 369.577 390.301C387.205 375.542 401.738 357.442 412.342 337.043C422.945 316.644 429.408 294.349 431.36 271.441C433.311 248.534 430.712 225.467 423.712 203.568C406.176 148.208 363.264 106.448 309.632 88.976V88.96ZM206.272 88C205.296 88 203.344 88 202.368 88.96C180.423 95.8132 160.05 106.94 142.423 121.699C124.795 136.458 110.262 154.558 99.6583 174.957C89.055 195.356 82.5915 217.651 80.6401 240.559C78.6887 263.466 81.2879 286.533 88.288 308.432C105.824 362.832 147.76 404.592 202.368 422.064C206.272 424 210.176 422.064 211.136 418.176C212.112 417.216 212.112 416.224 212.112 414.288V400.688L211.952 399.408C211.28 396.704 208.768 393.616 206.272 391.952C130.208 364.752 91.2 280.272 119.488 205.504C134.112 164.704 166.288 133.648 206.272 119.072C210.176 117.136 212.112 114.224 212.112 109.36V95.76L212.032 94.352C211.88 92.8156 211.238 91.3688 210.201 90.225C209.164 89.0813 207.786 88.3013 206.272 88V88ZM262.832 138.496H248.192L246.784 138.624C243.584 139.264 241.248 142.016 240.384 146.272V168.608L237.072 169.12C209.744 173.984 192.624 192.848 192.624 216.192C192.624 248.224 212.112 260.848 253.072 265.712C280.384 270.56 289.152 276.4 289.152 291.936C289.152 307.456 275.504 318.144 256.976 318.144C231.616 318.144 222.848 307.472 219.92 292.896C218.96 289.024 216.016 287.072 213.088 287.072H196.512L195.248 287.184C193.67 287.439 192.238 288.257 191.218 289.487C190.197 290.716 189.656 292.274 189.696 293.872V294.832L190.224 297.712C194.864 320.496 210.48 336.8 241.376 341.456V364.768L241.504 366.176C242.144 369.344 244.912 371.68 249.184 372.528H263.808L265.216 372.4C268.416 371.76 270.752 369.008 271.616 364.768V341.44L274.928 340.8C302.336 335.008 320.368 315.184 320.368 289.968C320.368 255.984 299.888 244.336 258.928 239.472C229.664 235.584 223.824 227.824 223.824 214.224C223.824 200.624 233.584 191.888 253.072 191.888C270.624 191.888 280.384 197.712 285.248 212.288C285.755 213.697 286.681 214.918 287.903 215.785C289.124 216.651 290.582 217.123 292.08 217.136H307.68L308.944 217.04C310.527 216.788 311.965 215.969 312.99 214.736C314.014 213.503 314.555 211.939 314.512 210.336V209.376L313.92 206.608C311.518 196.663 306.04 187.728 298.267 181.075C290.494 174.422 280.821 170.39 270.624 169.552V146.272L270.496 144.864C269.856 141.68 267.088 139.344 262.816 138.496H262.832Z" fill="#231F20"/>
</svg>
